<?xml version="1.0" encoding="UTF-8"?>
<svg id="Calque_1" data-name="Calque 1" xmlns="http://www.w3.org/2000/svg" viewBox="0 0 1011.63 1003.63">
  <defs>
    <style>
      .cls-1 {
        fill: #5aaa96;
      }
    </style>
  </defs>
  <path class="cls-1" d="M767.5,268.28h-191.85c-4.85,0-8.95,1.65-12.38,5.07-3.43,3.36-5.07,7.46-5.07,12.23s1.64,8.88,5.07,12.23c3.43,3.36,7.53,5.08,12.38,5.08h191.85c4.77,0,8.87-1.72,12.3-5.08,3.43-3.35,5.15-7.45,5.15-12.23s-1.71-8.87-5.15-12.23c-3.43-3.43-7.53-5.07-12.3-5.07h0Z"/>
  <path class="cls-1" d="M348.89,268.28h-191.93c-4.77,0-8.88,1.65-12.3,5.07-3.43,3.36-5.15,7.46-5.15,12.23s1.71,8.88,5.15,12.23c3.43,3.36,7.53,5.08,12.3,5.08h191.93c4.77,0,8.87-1.72,12.31-5.08,3.43-3.35,5.07-7.45,5.07-12.23s-1.65-8.87-5.07-12.23c-3.43-3.43-7.53-5.07-12.31-5.07h0Z"/>
  <path class="cls-1" d="M462.23,242.33c-6.93,0-13.65,1.27-20.06,3.95-6.41,2.61-12,6.34-16.93,11.18-4.91,4.92-8.72,10.51-11.33,16.85-2.69,6.42-4.03,12.97-4.03,19.91s1.34,13.49,4.03,19.84c2.61,6.41,6.42,12,11.33,16.85,4.92,4.85,10.51,8.65,16.93,11.26,6.41,2.61,13.13,3.95,20.06,3.95s13.64-1.34,20.06-3.95c6.41-2.61,12-6.41,16.92-11.26,4.92-4.85,8.73-10.44,11.33-16.85,2.68-6.34,4.03-12.98,4.03-19.84s-1.35-13.49-4.03-19.91c-2.61-6.34-6.41-11.93-11.33-16.85-4.92-4.84-10.51-8.57-16.92-11.18-6.42-2.69-13.13-3.95-20.06-3.95h0ZM462.23,311.53c-4.85,0-8.94-1.71-12.31-5.07-3.42-3.35-5.14-7.45-5.14-12.23s1.71-8.88,5.14-12.23c3.37-3.43,7.46-5.07,12.31-5.07s8.95,1.64,12.3,5.07c3.43,3.35,5.15,7.45,5.15,12.23s-1.71,8.87-5.15,12.23c-3.35,3.36-7.45,5.07-12.3,5.07h0Z"/>
  <path class="cls-1" d="M654.01,645.07c7.24-6.94,12-15.22,14.39-24.91,2.38-9.62,2.08-19.17-1.04-28.64-3.06-9.47-8.43-17.37-16.11-23.78-7.68-6.41-16.47-10.29-26.39-11.71l-64.5-9.32c-6.11-.89-10.59-4.1-13.35-9.61l-28.85-58.01c-4.47-8.95-10.88-16.03-19.38-21.25-8.58-5.22-17.83-7.91-27.82-7.91s-19.31,2.69-27.81,7.91c-8.5,5.22-14.98,12.3-19.38,21.25l-28.86,58.01c-2.76,5.51-7.23,8.72-13.34,9.61l-64.49,9.32c-9.92,1.41-18.72,5.29-26.4,11.71-7.68,6.42-13.05,14.31-16.11,23.78-3.13,9.47-3.43,19.02-1.05,28.64,2.39,9.69,7.16,17.97,14.32,24.91l46.75,45.18c4.4,4.24,6.12,9.47,5.07,15.5l-11.03,63.83c-1.72,9.77-.67,19.32,3.05,28.48,3.81,9.25,9.69,16.78,17.82,22.59,8.13,5.89,17.23,9.17,27.22,9.85,9.99.74,19.39-1.27,28.27-5.9l57.78-30.12c5.44-2.91,10.96-2.91,16.48,0l57.72,30.12c8.87,4.62,18.27,6.57,28.26,5.82,9.98-.68,19.01-3.96,27.14-9.84,8.12-5.81,14.02-13.35,17.82-22.52,3.8-9.25,4.85-18.71,3.13-28.48l-11.04-63.75c-1.04-6.11.67-11.34,5.15-15.58l46.6-45.18h0ZM583.02,665.42c-6.19,6.04-10.66,13.12-13.34,21.25-2.68,8.2-3.28,16.48-1.79,24.98l11.04,63.75c1.2,7.16-1.12,12.9-7.08,17.22-5.96,4.25-12.15,4.7-18.72,1.35l-57.71-30.13c-7.6-3.95-15.81-5.96-24.46-5.96s-16.85,2.01-24.45,5.96l-57.78,30.13c-6.49,3.42-12.68,2.98-18.65-1.35-5.96-4.24-8.27-9.99-7.09-17.22l11.04-63.75c1.49-8.43.89-16.78-1.79-24.91-2.68-8.2-7.16-15.29-13.34-21.25l-46.68-45.18c-5.29-5.07-6.78-11.12-4.48-18.04,2.24-6.94,7.01-10.97,14.32-12.01l64.5-9.25c8.58-1.27,16.4-4.4,23.34-9.46,7.01-5.07,12.46-11.41,16.33-19.16l28.78-57.95c3.28-6.55,8.58-9.84,15.96-9.84s12.68,3.28,15.89,9.84l28.85,58.01c3.87,7.68,9.24,14.02,16.26,19.09,7.01,5.06,14.83,8.2,23.41,9.4l64.5,9.32c7.3,1.04,12.08,5.07,14.32,12.01,2.31,6.93.81,12.97-4.47,18.04l-46.68,45.11h0Z"/>
  <path class="cls-1" d="M941.91,692.56v-326.67c0-4.77-1.72-8.87-5.15-12.3-3.36-3.36-7.46-5-12.3-5s-8.95,1.64-12.3,5c-3.43,3.43-5.15,7.53-5.15,12.3v306.31c-11.27-4.92-22.89-8.65-34.9-11.11V207.66c0-6.86-1.34-13.49-4.02-19.84-2.61-6.34-6.41-11.92-11.34-16.78-4.91-4.92-10.51-8.65-16.93-11.26-6.41-2.68-13.12-4.02-20.05-4.02h-17.38v-34.6h52.27c6.93,0,13.64,1.35,20.06,4.03,6.34,2.61,12,6.34,16.92,11.26,4.93,4.84,8.65,10.44,11.34,16.78,2.68,6.34,4.03,12.97,4.03,19.84v106.25c0,4.77,1.71,8.88,5.15,12.23,3.35,3.43,7.45,5.07,12.3,5.07s8.94-1.64,12.3-5.07c3.42-3.35,5.15-7.45,5.15-12.23v-106.25c0-5.67-.6-11.26-1.72-16.85-1.11-5.59-2.75-10.96-4.91-16.26-2.23-5.21-4.92-10.22-8.05-14.91-3.21-4.77-6.79-9.1-10.89-13.13-4.03-4.02-8.43-7.6-13.2-10.73-4.77-3.21-9.77-5.9-15.06-8.06-5.29-2.16-10.73-3.8-16.4-4.92-5.59-1.12-11.26-1.64-17-1.64h-52.27v-25.95c0-8.05-1.56-15.81-4.7-23.2-3.05-7.45-7.45-13.94-13.19-19.68-5.74-5.67-12.38-9.99-19.84-13.12-7.45-3.06-15.29-4.62-23.34-4.62s-15.88,1.56-23.41,4.62c-7.46,3.13-14.02,7.45-19.76,13.12-5.74,5.74-10.14,12.23-13.27,19.68-3.06,7.39-4.62,15.15-4.62,23.2v25.95h-156.96v-25.95c0-8.05-1.56-15.81-4.7-23.2-3.05-7.45-7.45-13.94-13.19-19.68-5.74-5.67-12.31-9.99-19.84-13.12-7.45-3.06-15.21-4.62-23.34-4.62s-15.88,1.56-23.34,4.62c-7.54,3.13-14.1,7.45-19.84,13.12-5.74,5.74-10.14,12.23-13.2,19.68-3.13,7.39-4.69,15.15-4.69,23.2v25.95h-156.96v-25.95c0-8.05-1.56-15.81-4.62-23.2-3.13-7.45-7.53-13.94-13.27-19.68-5.74-5.67-12.31-9.99-19.76-13.12-7.54-3.06-15.29-4.62-23.41-4.62s-15.88,1.56-23.34,4.62c-7.46,3.13-14.1,7.45-19.84,13.12-5.67,5.74-10.14,12.23-13.2,19.68-3.14,7.39-4.7,15.15-4.7,23.2v25.95h-34.82c-5.74,0-11.41.52-17.07,1.64-5.59,1.12-11.04,2.76-16.33,4.92-5.29,2.16-10.29,4.85-15.06,8.06-4.77,3.13-9.17,6.71-13.19,10.73-4.1,4.03-7.68,8.35-10.89,13.13-3.13,4.69-5.82,9.69-8.06,14.91-2.16,5.3-3.81,10.67-4.92,16.26-1.12,5.59-1.72,11.18-1.72,16.85v212.66c0,4.84,1.72,8.87,5.15,12.3,3.36,3.35,7.45,5.07,12.3,5.07s8.95-1.72,12.31-5.07c3.43-3.43,5.15-7.46,5.15-12.3v-212.66c0-6.86,1.34-13.5,4.02-19.84,2.69-6.34,6.41-11.94,11.34-16.78,4.92-4.92,10.58-8.65,16.92-11.26,6.41-2.68,13.12-4.03,20.05-4.03h34.82v34.6c-6.86,0-13.57,1.34-19.98,4.02-6.41,2.61-12.01,6.34-16.93,11.26-4.92,4.85-8.73,10.44-11.33,16.78-2.69,6.34-4.03,12.98-4.03,19.84v657.59c0,6.93,1.34,13.49,4.03,19.84,2.61,6.41,6.41,12,11.33,16.84,4.91,4.85,10.51,8.65,16.93,11.27,6.41,2.61,13.12,3.95,19.98,4.02h564.39c7.31,12.61,16.18,24.16,26.47,34.6H87.24c-6.93-.07-13.64-1.34-20.05-4.02-6.34-2.61-12.01-6.41-16.92-11.26-4.93-4.86-8.65-10.44-11.34-16.78-2.68-6.41-4.02-12.98-4.02-19.91v-427.55c0-4.77-1.72-8.88-5.15-12.23-3.36-3.43-7.46-5.08-12.31-5.08s-8.94,1.65-12.3,5.08c-3.43,3.35-5.15,7.45-5.15,12.23v427.55c0,5.74.6,11.33,1.72,16.93,1.11,5.59,2.76,10.96,4.92,16.18,2.23,5.29,4.93,10.29,8.06,14.99,3.21,4.7,6.78,9.1,10.89,13.12,4.02,4.03,8.42,7.61,13.19,10.74,4.77,3.21,9.77,5.82,15.06,7.98,5.29,2.23,10.74,3.87,16.33,5,5.67,1.04,11.33,1.64,17.07,1.64h674.44c9.7,4.62,19.68,8.36,30.05,11.11,10.36,2.83,20.87,4.62,31.62,5.52,10.66.89,21.32.74,31.98-.3,10.74-1.12,21.18-3.2,31.47-6.2,10.29-2.98,20.21-6.93,29.75-11.77,9.62-4.85,18.64-10.51,27.14-17.01,8.5-6.49,16.33-13.64,23.49-21.62,7.16-7.91,13.57-16.41,19.09-25.5,5.59-9.1,10.29-18.64,14.1-28.56,3.8-9.99,6.63-20.21,8.57-30.65,1.86-10.51,2.76-21.03,2.69-31.69,0-10.66-1.12-21.18-3.13-31.69-2.01-10.43-5-20.57-8.94-30.49-3.95-9.92-8.73-19.39-14.39-28.41-5.74-9.02-12.23-17.45-19.46-25.28-7.3-7.83-15.21-14.91-23.78-21.33h0ZM715.15,60.62c0-3.43.67-6.78,2.02-9.92,1.27-3.2,3.2-6.04,5.67-8.42,2.46-2.46,5.29-4.33,8.5-5.67,3.2-1.34,6.48-1.94,9.99-1.94s6.78.6,9.99,1.94c3.2,1.34,6.04,3.2,8.5,5.67,2.46,2.38,4.32,5.22,5.67,8.42,1.34,3.13,2.01,6.49,2.01,9.92v103.79c0,3.43-.67,6.78-2.01,9.92-1.35,3.21-3.21,6.04-5.67,8.42-2.47,2.47-5.3,4.33-8.5,5.67-3.21,1.27-6.56,1.94-9.99,1.94s-6.78-.67-9.99-1.94c-3.21-1.34-6.05-3.21-8.5-5.67-2.46-2.38-4.4-5.21-5.67-8.42-1.35-3.14-2.02-6.49-2.02-9.92V60.62h0ZM680.26,121.17v34.6h-156.96v-34.6h156.96ZM436.06,60.62c0-3.43.67-6.78,2.01-9.92,1.34-3.2,3.21-6.04,5.67-8.42,2.46-2.46,5.29-4.33,8.5-5.67,3.21-1.34,6.49-1.94,9.99-1.94s6.78.6,9.99,1.94c3.2,1.34,6.04,3.2,8.5,5.67,2.45,2.38,4.32,5.22,5.66,8.42,1.35,3.13,2.02,6.49,2.02,9.92v103.79c0,3.43-.67,6.78-2.02,9.92-1.34,3.21-3.21,6.04-5.66,8.42-2.46,2.47-5.3,4.33-8.5,5.67-3.21,1.27-6.49,1.94-9.99,1.94s-6.78-.67-9.99-1.94c-3.2-1.34-6.04-3.21-8.5-5.67-2.47-2.38-4.33-5.21-5.67-8.42-1.34-3.14-2.01-6.49-2.01-9.92V60.62h0ZM401.16,121.17v34.6h-156.96v-34.6h156.96ZM156.96,60.62c0-3.43.67-6.78,2.01-9.92,1.34-3.2,3.21-6.04,5.67-8.42,2.45-2.46,5.29-4.33,8.5-5.67,3.2-1.34,6.56-1.94,9.99-1.94s6.86.6,10.07,1.94c3.13,1.34,5.96,3.2,8.42,5.67,2.46,2.38,4.4,5.22,5.67,8.42,1.34,3.13,2.01,6.49,2.01,9.92v103.79c0,3.43-.67,6.78-2.01,9.92-1.27,3.21-3.21,6.04-5.67,8.42-2.46,2.47-5.29,4.33-8.42,5.67-3.21,1.27-6.57,1.94-10.07,1.94s-6.79-.67-9.99-1.94c-3.21-1.34-6.05-3.21-8.5-5.67-2.46-2.38-4.33-5.21-5.67-8.42-1.34-3.14-2.01-6.49-2.01-9.92V60.62h0ZM104.69,207.66c0-4.77,1.72-8.8,5.07-12.23,3.43-3.36,7.54-5,12.3-5.07h6.19c4.99,10.59,12.45,19.01,22.37,25.27,9.92,6.27,20.73,9.32,32.51,9.32s22.59-3.05,32.59-9.32c9.92-6.26,17.37-14.69,22.37-25.27h169.19c5,10.59,12.53,19.01,22.44,25.27,9.92,6.27,20.73,9.32,32.51,9.32s22.59-3.05,32.51-9.32c9.92-6.26,17.45-14.69,22.44-25.27h169.19c5,10.59,12.45,19.01,22.37,25.27,9.99,6.27,20.8,9.32,32.58,9.32s22.6-3.05,32.51-9.32c9.92-6.26,17.37-14.69,22.38-25.27h23.56c4.85.07,8.94,1.71,12.38,5.07,3.36,3.43,5.07,7.45,5.07,12.23v155.76H104.69v-155.76h0ZM122.06,882.55c-4.77,0-8.87-1.64-12.3-5.07-3.35-3.36-5.07-7.46-5.07-12.23v-467.23h732.53v259.56c-6.78,0-13.57.44-20.36,1.19-6.78.82-13.5,2.01-20.13,3.58-6.63,1.56-13.2,3.5-19.53,5.82-6.42,2.38-12.67,5.07-18.79,8.12-6.03,3.06-11.93,6.41-17.67,10.22-5.67,3.73-11.11,7.75-16.33,12.15-5.15,4.4-10.06,9.02-14.77,14.01-4.62,4.93-9.02,10.15-13.05,15.59-4.03,5.44-7.68,11.11-11.11,17-3.35,5.89-6.34,12-9.03,18.19-2.61,6.26-4.91,12.6-6.78,19.16-1.86,6.49-3.43,13.05-4.47,19.76-1.12,6.64-1.86,13.43-2.16,20.13-.37,6.78-.3,13.57.22,20.28.45,6.79,1.34,13.5,2.61,20.13,1.27,6.63,2.99,13.2,5,19.61H122.06ZM837.22,969.12c-9.09,0-18.2-.89-27.22-2.69-8.95-1.79-17.67-4.4-26.17-7.91-8.42-3.42-16.48-7.68-24.08-12.75-7.61-5.06-14.69-10.81-21.18-17.22-6.49-6.42-12.23-13.43-17.37-20.96-5.07-7.6-9.39-15.59-12.9-23.93-3.5-8.42-6.11-17.07-7.9-26.02-1.8-8.88-2.68-17.9-2.68-27s.89-18.04,2.68-26.99c1.79-8.95,4.4-17.6,7.9-25.95,3.51-8.43,7.83-16.41,12.9-23.94,5.15-7.6,10.89-14.54,17.37-21.03,6.49-6.41,13.57-12.15,21.18-17.22,7.6-5,15.66-9.25,24.08-12.75,8.5-3.51,17.22-6.11,26.17-7.91,9.02-1.79,18.12-2.61,27.22-2.61s18.27.82,27.22,2.61c9.02,1.8,17.75,4.4,26.24,7.91,8.43,3.5,16.49,7.75,24.09,12.75,7.61,5.07,14.69,10.81,21.18,17.22,6.49,6.48,12.23,13.42,17.3,21.03,5.15,7.53,9.4,15.51,12.9,23.94,3.51,8.35,6.19,17,7.98,25.95,1.79,8.94,2.69,17.89,2.69,26.99s-.9,18.12-2.76,27c-1.79,8.94-4.4,17.6-7.91,25.94-3.5,8.42-7.83,16.4-12.9,23.94-5.15,7.52-10.89,14.53-17.37,20.95-6.49,6.49-13.49,12.23-21.1,17.22-7.68,5.07-15.66,9.32-24.16,12.82-8.42,3.51-17.15,6.12-26.17,7.91-8.95,1.79-18.04,2.69-27.22,2.69h0Z"/>
  <path class="cls-1" d="M899.11,769.36l-86.42,85.75-37.13-36.84c-3.43-3.36-7.6-5.07-12.38-5-4.85,0-8.95,1.64-12.38,5.07-3.43,3.35-5.15,7.45-5.15,12.23s1.71,8.88,5.07,12.31l37.21,36.84,12.37,12.23c3.43,3.35,7.53,5.07,12.38,5.07s8.87-1.72,12.31-5.07l12.29-12.23h-.07l86.57-85.83c3.35-3.43,5.07-7.45,5-12.23,0-4.77-1.72-8.88-5.07-12.23-3.43-3.36-7.54-5.07-12.31-5.07s-8.87,1.64-12.3,5h0Z"/>
</svg>