<?xml version="1.0" encoding="UTF-8"?>
<svg id="Calque_1" data-name="Calque 1" xmlns="http://www.w3.org/2000/svg" viewBox="0 0 926.39 984.95">
  <defs>
    <style>
      .cls-1 {
        fill: #5aaa96;
      }
    </style>
  </defs>
  <path class="cls-1" d="M910.42,227.16l-308.8-85.19c-5.33-1.77-12.43,0-17.76,3.56-2.68,1.79-4.92,4.04-6.47,6.74l-103.58,37.89C473.02,84.38,388.16,0,282.17,0,188.68,0,111.31,65.88,93.9,153.76l-67.28-22.43c-5.33-1.78-12.43,0-17.76,3.55-5.33,3.55-8.87,8.87-8.87,15.97v731.17c0,8.87,7.1,17.74,15.97,19.53l301.7,79.86h5.33c.79,0,1.66-.09,2.56-.27,1.17.11,2.58.89,4.54,3.81l274.83-79.79,294.83,76.25h5.33c5.33,0,8.87-1.79,14.2-5.33,3.56-3.56,7.1-8.87,7.1-15.97V246.68c0-8.87-7.1-17.75-15.97-19.52ZM411.73,571.45c-12.43,0-21.3,10.65-21.3,21.3v325.18l-47.82,13.77,1.32-406.03.35-99.11c117.26-155.59,124.26-185.28,126.01-194.06v-3.55l104.7-38.39v674.25l-141.97,40.87v-312.92c0-12.42-10.66-21.3-21.3-21.3ZM133.1,184.57c5.33-79.86,70.99-141.98,150.86-141.98s150.84,67.44,150.84,150.85c0,7.1,0,14.2-1.77,21.3-1.77,1.78-1.77,3.55-1.77,5.33l-1.79,5.32c-3.47,13.91-35.92,67-117.32,174.28-1.93,1.34-3.66,3.01-5.13,4.97-8.87,12.42-17.76,23.07-24.86,31.95-62.11-81.64-141.97-189.89-147.3-214.74v-3.55c-1.77-8.87-1.77-17.75-1.77-26.62v-7.1ZM42.6,179.25l48.07,18.89c.47,10.22,1.91,20.23,3.39,29.03l1.77,5.32c3.54,12.43,15.97,42.6,90.5,145.53,39.05,55.02,79.86,106.48,79.86,106.48,3.56,3.55,8.87,7.1,15.97,7.1.3,0,.6-.02.89-.03.3.01.59.03.89.03,5.31,0,12.41-1.78,15.97-7.1,0,0,1.19-1.55,3.35-4.36l-1,304.99-.58,148.36-259.1-69.21V179.25ZM885.58,933.49l-62.12-16.04v-511.04c0-12.43-8.87-21.3-21.3-21.3s-21.3,10.64-21.3,21.3v500.04l-161.5-41.71V188.6l266.22,72.28v672.61Z"/>
  <path class="cls-1" d="M282.17,273.3c49.7,0,90.52-40.82,90.52-90.5s-40.82-90.51-90.52-90.51-90.5,40.82-90.5,90.51,40.82,90.5,90.5,90.5ZM282.17,133.1c28.4,0,49.7,23.07,49.7,49.69s-23.07,49.69-49.7,49.69-49.68-23.07-49.68-49.69,23.07-49.69,49.68-49.69Z"/>
  <rect class="cls-1" x="205.86" y="511.11" width="40.81" height="40.82"/>
  <rect class="cls-1" x="205.86" y="571.45" width="40.81" height="40.82"/>
  <rect class="cls-1" x="205.86" y="633.56" width="40.81" height="40.82"/>
  <rect class="cls-1" x="205.86" y="695.69" width="40.81" height="40.81"/>
  <rect class="cls-1" x="205.86" y="757.79" width="40.81" height="40.83"/>
  <path class="cls-1" d="M802.16,367.36c12.43,0,21.3-10.65,21.3-21.3v-21.3c0-12.42-8.87-21.3-21.3-21.3s-21.3,10.65-21.3,21.3v21.3c0,12.42,10.66,21.3,21.3,21.3Z"/>
</svg>