<?xml version="1.0" encoding="UTF-8"?>
<svg id="Calque_1" data-name="Calque 1" xmlns="http://www.w3.org/2000/svg" viewBox="0 0 832.84 520.94">
  <defs>
    <style>
      .cls-1 {
        fill: #fff;
      }
    </style>
  </defs>
  <path class="cls-1" d="M132.13,263.3c.73,2.39-9.6,3.38-9.62,1.02l-1.22-105.44c-16.21,13.08-28.53,23.84-41.19,36.33l-1.03,57.42c-1.52,2.74-9.49-2.32-9.52-5.07l-.45-34.58c-12.18,8.36-23.22,15.01-29.16,30.96l-36.78-9.21L3.01,0l215.02.02,1.21,289.14-37.59-8.9-.38-77.92c-.55-17.08,8.59-31.04,26.63-34.96l-.63-129.22-75.39,83.45.26,141.68Z"/>
  <path class="cls-1" d="M699.04,245.71c-41.23,12.85-24.91-36.99-57.94-26.57l-.51,27.71-19.75-.27-.04-90.25c18.59-.85,36.71-1.29,55.24.86,14.4,1.67,20.81,15.89,21.43,27.71.69,13.09-6.07,22.88-19.15,30.41l20.73,30.4ZM668.07,199.59c4.55-.04,9.89-10.18,9.23-14.44-.57-3.73-6.37-10.83-10.69-11l-25.43-.98-.31,26.65,27.2-.24Z"/>
  <path class="cls-1" d="M577.28,245.78c-40.42,13.7-25.07-38.14-58.09-26.57l.14,27.4-19.73.82-.25-91.11c26.92-.16,74.87-9.35,76.74,26.2.72,13.67-4.22,24.39-18.69,32.51l19.88,30.75ZM546.82,199.15c4.43-.07,10.13-9.91,9.22-13.87-3.42-14.88-23.28-11.95-36.94-11.91l-.26,26.23,27.98-.45Z"/>
  <path class="cls-1" d="M448.5,210.16l-40.81-.02c-3.58,2.29-3.52,14-1.09,18.99l45.95.48c1.42,3.75,2.2,10.77,2.39,17.55l-70.08-.1-.1-91.28,68.32-.32.64,17.78-46.08.13c-3.05,2.61-3.48,13.57-1.49,18.16l41.68.85.66,17.77Z"/>
  <path class="cls-1" d="M333.82,370.21l-.35-50.94-22.31,32.81-22.42-31.02-1.22,49.8-16.87-.23.27-77.8c3.18-4.07,17.2-4.46,20.08-.16l20.19,30.13,19.8-29.9c2.74-4.13,15.1-2.83,20.54-1.72l.35,78.29c-3.84,1.2-13.18,1.52-18.05.74Z"/>
  <path class="cls-1" d="M802.95,227.41c-12.79-.91-28.97-.85-40.49.65-2.94,7.62-5.12,14.28-7.75,17.38-2.95,3.49-14.62,1.98-19.46.1l37.58-88.71c5.66-2.45,15.1-2.4,20.87.42l37.2,88.47c-5.96,1.53-16.07,2.8-19.5.14s-5.31-10.38-8.45-18.45ZM794.92,207.34l-12.06-26.24-12.05,27.32c10.99.29,16.21.02,24.1-1.08Z"/>
  <path class="cls-1" d="M673.43,369.23c-1.88,1.08-10.02,1.61-16.28,1.49l.24-77.67c3.27-4.12,15.58-3.8,19.14.79l34.09,43.91,1.52-47.96,17.23,1.06-.38,78.3c-17.13,14.76-35.26-31.86-54.13-47.79l-1.42,47.87Z"/>
  <path class="cls-1" d="M423.34,371.61c-28.62,3.85-49.97-15.97-49.76-41.71.2-24.9,21.41-43.88,48.19-41.18,21.48,2.17,36.15,18.62,37.73,38.61,1.68,21.15-12.32,41.08-36.16,44.29ZM424.01,354.82c13.23-4.14,19.02-17.19,16.4-30.15-2.21-10.91-11.93-20.5-25.8-19.52-15.72,1.11-24.25,15.46-22.08,29.76,2.05,13.56,16.94,24.46,31.48,19.91Z"/>
  <path class="cls-1" d="M808.85,355.95c-7.76-4.56-27.49-5.85-35.96-.53-3.12,1.96-4.13,12.04-7.35,13.81-3.68,2.03-13.25,1.73-17.15.38l33.56-79.76,17.54.14,33.35,79.66c-6.16,1.03-14.05,2.09-16.82.36-2.78-1.73-4.05-7.72-7.17-14.06ZM801.29,335.87l-10.89-23.51-10.65,23.88,21.54-.37Z"/>
  <path class="cls-1" d="M613.59,355.16c-8.09-3.82-27.21-4.05-36.12-.52-2.25,3.8-3.96,12.25-6.81,14.67-3.26,2.76-13.76,1.48-17.46.09l33.67-79.44c5.22-.21,12.17-.07,17.53.39l33.43,79.07c-4.06,1.22-11.44,2.1-15.62.94-3.5-.97-5.16-8.14-8.62-15.19ZM604.33,333.91c-2.72-8.56-4.87-13.29-8.75-21.44l-10.55,21.92c4,3.17,17.15,3.54,19.3-.48Z"/>
  <path class="cls-1" d="M523.29,369.73c-16.82,5.46-35.52.65-46.1-10.44,8.4-28.92,27.22,13.42,45.27-9.72-2.96-17.49-43.38-5.43-43.69-36.23-.12-11.76,8.05-21.88,21.76-24.16,12.93-2.15,27.24,1.62,36.04,10.21l-6.56,10.4c-3.38,5.37-26.74-16.91-34.38,3.2,10.02,13.36,41.34,7.15,43.8,30.36,1.14,10.72-3.71,22.35-16.13,26.38Z"/>
  <path class="cls-1" d="M314.67,246.01c-4.98.7-13.47.93-20.25.83l-.25-72.18-24.94-1.66c-4.44-.3-3.99-16.7.51-17.31l72.1-.07,1.27,17.97-28.28.42-.16,72.01Z"/>
  <path class="cls-1" d="M99.2,512.88c-34.22-.8-66.5,8.52-99.2-.34,52.97-16.61,103.17-11.08,154.15-18.93l57.79-8.9c2.16-.33,8.3,3.85,7.86,5.48s-2.44,4.19-4.44,4.6c-57.09,11.82-37.89,19.92-116.17,18.09Z"/>
  <path class="cls-1" d="M216.16,387.14c-58.98-27.16-111.87-48.39-165.85-5.19-14.17,11.34-27.37,20.93-44.46,32.25-11.76-25.79,12.76-22.88,20.11-38.41l-20.87,12.75c-6.09-12.6-1.12-23.06,9.64-30.78,31.76-22.77,69.37-32.99,108.6-22.36,33.18,8.99,69.51,17.36,98.28,38.84-41.65-9.54-73.81-32.78-115.9-31.91-29.8.61-61.97,11.08-81.06,34.83,73.83-52.85,119.63-28.42,194.68,4.32-.44,3.23-1.91,6.17-3.16,5.66Z"/>
  <path class="cls-1" d="M68.26,407.77c-51.74,51.2-85.36,30.05-56.19,20.02,19.91-6.85,34.35-19.82,50.11-33.2,27.34-23.21,62.04-34.25,96.71-22.59,21.47,7.23,45.08,13.8,62.86,31.08-16.24-2.17-29.85-11.63-44.48-17.3-37.9-14.69-78.52-8.19-109.01,21.99Z"/>
  <path class="cls-1" d="M211.93,474.21c-71.68-3.52-139.08,14.02-208.47,27.67,56.32-23.37,86.67-34,144.29-41.33,62.97-8.01,87.35,14.79,64.18,13.66Z"/>
  <path class="cls-1" d="M126.06,330.99c-45.44-9.09-85.72-.8-120.63,29.61-1.35-5.69-2.36-11.26-2.74-16.36-.32-4.31,7.18-10.75,12.3-13.28,32.93-16.28,70.86-17.92,107.14-7.9,33.7,9.3,68.79,18.2,99.67,38.14-34.59-5.29-61.94-23.44-95.75-30.2Z"/>
  <path class="cls-1" d="M68.68,472.59c-22.01,8.01-42.08,16.05-65.21,21.03,54.5-20.46,101.88-58.75,162.21-51.16,19.27,2.42,41.83-1.95,55.91,16.8-53.08-5.21-103.94-4.49-152.91,13.34Z"/>
  <path class="cls-1" d="M.05,467.29c32.02-11.46,61.77-19.82,79.25-49.54-22.75,17.08-38.23,36.84-67.22,39.06-1.87.14-8.25.6-8.18-1.17l.29-7.72c.07-1.78,5.16-1.29,7.97-1.92,46.29-10.42,58.37-49.73,110.6-64.45,34.37-.38,71.1,8.57,97.24,33.85-46.19-26.9-104.25-34.77-141.92,4.14,44.44-29.23,105.35-32.61,142.66,7.68-56.66-28.44-115.76-25.94-157.81,18.5-18.48,11.19-38.22,31.84-62.87,21.58Z"/>
  <path class="cls-1" d="M222.49,341.99c-35.55.62-64.84-19.82-98.11-26.96-40.98-8.79-79.74-14.84-120.29,1.02l-.46-13.3c-.31-9.01,60.24-7.04,67.49-5.88,51.22,8.2,100.96,22.47,151.37,45.12Z"/>
  <path class="cls-1" d="M58.32,464.3c-17.92,10.61-36.31,18.63-55.71,20.57,22.16-9.29,41.3-14.69,59.8-28.8,44.34-33.81,111.29-48.1,160.52-11.13-59.24-11.77-112.93-11.22-164.61,19.37Z"/>
  <path class="cls-1" d="M158.55,300.49c-38.97-10.52-76.41-24.11-115.82-23.81l-39.45.3,1.64-12.17c40.45-.21,78.85,5.97,117.45,17.63,33.4,10.1,67.2,17.2,101.05,31.87-23.46,5.84-43.12-7.95-64.86-13.82Z"/>
  <path class="cls-1" d="M222.71,328.51c-32.95,1.91-59.95-16.84-90.93-23.66-39.29-8.65-77.42-20.68-117.68-12.11l-8.71,1.85c-1.92.41-1.71-10.6.11-11.3,42.52-14.09,165.18,22.08,217.2,45.22Z"/>
  <path class="cls-1" d="M220.74,301.71c-45.99-2.39-85.85-23.5-130.16-33.16-28.14-6.14-57.17-10.73-85.69-10.3-2.16.03-.67-10.16,2.43-9.9,21.78,1.89,47.34,7.17,69.29,12.13,47.93,14.18,94.65,23.04,144.14,41.23Z"/>
  <path class="cls-1" d="M183.97,520.94l-147.85-.84c33.4-3.37,66.81-.63,101.76-2.22,34.6-1.57,79.9-29.73,83.33-11.47l-37.23,14.53Z"/>
  <path class="cls-1" d="M219.92,520.21l-23.26.63c6.83-3.71,13.97-9.6,23.26-.63Z"/>
</svg>