<?xml version="1.0" encoding="UTF-8"?>
<svg id="Calque_1" data-name="Calque 1" xmlns="http://www.w3.org/2000/svg" viewBox="0 0 881.49 1017.73">
  <defs>
    <style>
      .cls-1 {
        fill: #5aaa96;
      }
    </style>
  </defs>
  <path class="cls-1" d="M844.8,944.36h-1.44v-28.41c0-15.35-12.4-28.2-28.05-28.39v-347.11c15.49-.39,28.05-13.15,27.69-28.38v-28.77h1.8c20.5,0,36.68-16.54,36.68-36.68s-16.54-36.68-36.68-36.68h-7.88l-294.22-170.16v-59.29c0-28.41-23.02-51.43-51.43-51.43h-39.2v-20.18l60.42-42.39c3.24-2.16,5.03-5.75,5.03-9.35s-1.8-7.19-5.03-9.35L447.4,2.1c-5.39-3.6-12.59-2.52-16.18,2.88-.91,1.36-1.49,2.84-1.78,4.35-.22.91-.38,1.85-.38,2.84v116.88h-39.2c-28.41,0-51.43,23.02-51.43,51.43v59.42L43.95,409.93h-7.26c-20.14,0-36.68,16.54-36.68,36.68s16.54,36.68,36.68,36.68h1.8v28.77c0,15.23,12.21,27.99,27.69,28.38v347.13c-15.14.39-27.69,12.8-27.69,28.38v28.41h-1.8c-20.14,0-36.68,16.54-36.68,36.68s16.54,36.68,36.68,36.68h808.12c20.5,0,37.04-16.54,36.68-36.68,0-20.14-16.54-36.68-36.68-36.68ZM452.07,81.19v-47.42l33.81,23.71-33.81,23.71ZM820.35,915.95v28.41h-135.23v-28.41c0-2.88,2.52-5.39,5.39-5.39h124.44c2.88,0,5.39,2.52,5.39,5.39ZM635.49,944.36v-28.41c0-15.35-12.4-28.2-28.05-28.39v-347.11c15.49-.39,28.05-13.15,27.69-28.38v-28.77h26.61v28.77c0,15.35,12.4,28.2,28.05,28.39v347.11c-15.14.39-27.69,12.8-27.69,28.38v28.41h-26.61ZM477.25,944.36v-28.41c0-2.88,2.52-5.39,5.39-5.39h124.44c2.88,0,5.39,2.52,5.39,5.39v28.41h-135.23ZM427.62,944.36v-28.41c0-15.35-12.4-28.2-28.05-28.39v-347.09c15.3-.2,28.05-13.05,28.05-28.39v-28.77h26.25v28.77c0,15.35,12.4,28.2,28.05,28.39v347.11c-15.14.39-27.69,12.8-27.69,28.38v28.41h-26.61ZM269.37,944.36v-28.41c0-2.88,2.52-5.39,5.39-5.39h124.44c2.88,0,5.39,2.52,5.39,5.39v28.41h-135.23ZM219.74,944.36v-28.41c0-15.35-12.4-28.2-28.05-28.39v-347.09c15.3-.2,28.05-13.05,28.05-28.39v-28.77h26.61v28.77c0,15.23,12.21,27.99,27.69,28.38v347.13c-15.14.39-27.69,12.8-27.69,28.38v28.41h-26.61ZM168.67,540.48v347.06h-79.48v-347.06h79.48ZM297.07,540.48h79.48v347.06h-79.48v-347.06ZM399.21,517.47h-124.44c-2.88,0-5.39-2.52-5.39-5.39v-28.77h135.23v28.77c0,2.88-2.52,5.39-5.39,5.39ZM504.94,540.48h79.48v347.06h-79.48v-347.06ZM606.72,517.47h-124.44c-2.88,0-5.39-2.52-5.39-5.39v-28.77h135.23v28.77c0,2.88-2.52,5.39-5.39,5.39ZM792.3,540.48v347.06h-79.48v-347.06h79.48ZM819.99,512.07c0,2.88-2.52,5.39-5.39,5.39h-124.44c-2.88,0-5.39-2.52-5.39-5.39v-28.77h135.23v28.77ZM361.44,180.48c0-15.82,12.95-28.41,28.41-28.41h47.93c.89.21,1.81.36,2.78.36.89,0,1.76-.14,2.6-.36h48.11c15.82,0,28.41,12.95,28.41,28.41v45.98l-58.98-34.11c-12.59-7.19-27.33-7.19-39.92,0l-59.34,34.26v-46.13ZM432.29,212.49c5.39-3.24,11.51-3.24,16.9,0l74.94,43.27c.83.64,1.73,1.19,2.73,1.58l264.28,152.6h-64.02l-280.81-162.2c-3.6-2.16-7.91-2.16-11.51,0l-280.81,162.2h-63.66l341.96-197.44ZM680.77,409.93H200.35l240.21-138.82,240.21,138.82ZM23.02,446.26c0-7.55,6.11-13.67,13.67-13.67h9.55c1.1.15,2.21.17,3.32,0h672.12c1.12.17,2.23.15,3.32,0h119.81c7.55,0,13.67,6.11,13.67,13.67s-6.11,13.67-13.67,13.67H36.68c-7.55,0-13.67-6.11-13.67-13.67ZM61.5,512.07v-28.77h135.23v28.77c0,2.88-2.52,5.39-5.39,5.39h-124.44c-2.88,0-5.39-2.52-5.39-5.39ZM61.5,915.95c0-2.88,2.52-5.39,5.39-5.39h124.44c2.88,0,5.39,2.52,5.39,5.39v28.41H61.5v-28.41ZM844.8,994.71H36.68c-7.55,0-13.67-6.11-13.67-13.67s6.11-13.67,13.67-13.67h808.12c7.55,0,13.67,6.11,13.67,13.67s-6.11,13.67-13.67,13.67Z"/>
</svg>