<?xml version="1.0" encoding="UTF-8"?>
<svg id="Calque_1" data-name="Calque 1" xmlns="http://www.w3.org/2000/svg" viewBox="0 0 874 893.42">
  <defs>
    <style>
      .cls-1 {
        fill: #5aaa96;
      }
    </style>
  </defs>
  <path class="cls-1" d="M378.73,893.42H106.82c-5.36,0-9.71-4.35-9.71-9.71V9.71c0-3.22,1.6-6.24,4.27-8.04,2.67-1.81,6.06-2.17,9.05-.98l388.45,155.38c3.68,1.47,6.1,5.05,6.1,9.01v108.21c0,3.48-1.86,6.7-4.89,8.43l-111.64,63.79v538.19c0,5.37-4.35,9.71-9.71,9.71ZM116.53,874h252.49V339.89c0-3.48,1.87-6.7,4.89-8.43l111.64-63.79v-96L116.53,24.05v849.94Z"/>
  <path class="cls-1" d="M786.59,893.42h-407.87c-5.36,0-9.71-4.35-9.71-9.71V339.89c0-3.48,1.86-6.7,4.89-8.43l407.87-233.06c3-1.72,6.69-1.71,9.69.03,2.99,1.74,4.84,4.94,4.84,8.4v776.89c0,5.36-4.34,9.7-9.71,9.7ZM388.44,874h388.44V123.56l-388.44,221.97v528.47Z"/>
  <path class="cls-1" d="M611.8,213.65c-5.36,0-9.71-4.35-9.71-9.71v-108.81l-233.07-53.78v65.48c0,5.36-4.35,9.71-9.71,9.71s-9.71-4.35-9.71-9.71V29.13c0-2.96,1.35-5.76,3.67-7.6,2.31-1.84,5.35-2.53,8.23-1.86l252.49,58.27c4.41,1.02,7.53,4.94,7.53,9.46v116.53c0,5.36-4.35,9.71-9.71,9.71Z"/>
  <rect class="cls-1" x="145.66" y="145.67" width="155.38" height="38.85"/>
  <rect class="cls-1" x="145.66" y="203.94" width="155.38" height="38.84"/>
  <rect class="cls-1" x="145.66" y="262.2" width="155.38" height="38.85"/>
  <rect class="cls-1" x="145.66" y="320.46" width="155.38" height="38.85"/>
  <rect class="cls-1" x="145.66" y="378.73" width="155.38" height="38.85"/>
  <rect class="cls-1" x="145.66" y="437" width="155.38" height="38.85"/>
  <rect class="cls-1" x="145.66" y="495.27" width="155.38" height="38.85"/>
  <rect class="cls-1" x="145.66" y="553.53" width="155.38" height="38.85"/>
  <rect class="cls-1" x="145.66" y="611.8" width="155.38" height="38.85"/>
  <rect class="cls-1" x="145.66" y="670.07" width="155.38" height="38.85"/>
  <rect class="cls-1" x="145.66" y="728.33" width="155.38" height="38.85"/>
  <rect class="cls-1" x="145.66" y="786.6" width="155.38" height="38.84"/>
  <rect class="cls-1" x="417.57" y="359.31" width="38.84" height="77.69"/>
  <rect class="cls-1" x="475.84" y="359.31" width="38.84" height="77.69"/>
  <rect class="cls-1" x="534.11" y="359.31" width="38.84" height="77.69"/>
  <rect class="cls-1" x="592.38" y="359.31" width="38.84" height="77.69"/>
  <rect class="cls-1" x="650.64" y="359.31" width="38.84" height="77.69"/>
  <rect class="cls-1" x="708.9" y="359.31" width="38.85" height="77.69"/>
  <rect class="cls-1" x="592.38" y="262.2" width="38.84" height="77.69"/>
  <rect class="cls-1" x="650.64" y="262.2" width="38.84" height="77.69"/>
  <rect class="cls-1" x="708.9" y="262.2" width="38.85" height="77.69"/>
  <rect class="cls-1" x="417.57" y="456.42" width="38.84" height="77.69"/>
  <rect class="cls-1" x="475.84" y="456.42" width="38.84" height="77.69"/>
  <rect class="cls-1" x="534.11" y="456.42" width="38.84" height="77.69"/>
  <rect class="cls-1" x="592.38" y="456.42" width="38.84" height="77.69"/>
  <rect class="cls-1" x="650.64" y="456.42" width="38.84" height="77.69"/>
  <rect class="cls-1" x="708.9" y="456.42" width="38.85" height="77.69"/>
  <rect class="cls-1" x="417.57" y="553.53" width="38.84" height="77.69"/>
  <rect class="cls-1" x="475.84" y="553.53" width="38.84" height="77.69"/>
  <rect class="cls-1" x="534.11" y="553.53" width="38.84" height="77.69"/>
  <rect class="cls-1" x="592.38" y="553.53" width="38.84" height="77.69"/>
  <rect class="cls-1" x="650.64" y="553.53" width="38.84" height="77.69"/>
  <rect class="cls-1" x="708.9" y="553.53" width="38.85" height="77.69"/>
  <rect class="cls-1" x="417.57" y="650.64" width="38.84" height="77.69"/>
  <rect class="cls-1" x="475.84" y="650.64" width="38.84" height="77.69"/>
  <rect class="cls-1" x="534.11" y="650.64" width="38.84" height="77.69"/>
  <rect class="cls-1" x="592.38" y="650.64" width="38.84" height="77.69"/>
  <rect class="cls-1" x="650.64" y="650.64" width="38.84" height="77.69"/>
  <rect class="cls-1" x="708.9" y="650.64" width="38.85" height="77.69"/>
  <rect class="cls-1" x="417.57" y="747.76" width="38.84" height="77.69"/>
  <rect class="cls-1" x="475.84" y="747.76" width="38.84" height="77.69"/>
  <rect class="cls-1" x="534.11" y="747.76" width="38.84" height="77.69"/>
  <rect class="cls-1" x="592.38" y="747.76" width="38.84" height="77.69"/>
  <rect class="cls-1" x="650.64" y="747.76" width="38.84" height="77.69"/>
  <rect class="cls-1" x="708.9" y="747.76" width="38.85" height="77.69"/>
  <path class="cls-1" d="M864.28,893.42H9.71c-5.36,0-9.71-4.35-9.71-9.71s4.35-9.71,9.71-9.71h854.58c5.36,0,9.71,4.35,9.71,9.71s-4.36,9.71-9.72,9.71Z"/>
</svg>