<?xml version="1.0" encoding="UTF-8"?>
<svg id="Calque_1" data-name="Calque 1" xmlns="http://www.w3.org/2000/svg" viewBox="0 0 1024 891.63">
  <defs>
    <style>
      .cls-1 {
        fill: #5aaa96;
      }
    </style>
  </defs>
  <g id="_243_Blue_Print_Architect_Build_Construction_Design" data-name="243, Blue Print, Architect, Build, Construction, Design">
    <g>
      <path class="cls-1" d="M1022.26,153.25c0-12.19-10.45-22.64-22.64-22.64H174.15v-41.8C174.15,38.31,135.84,0,87.08,0S0,40.05,0,90.55v668.72c1.74,74.89,57.48,132.35,130.63,132.35h870.73c12.19,0,22.64-10.45,22.64-22.63-1.74-59.21-1.74-687.88-1.74-715.74ZM87.08,45.28c24.39,0,43.54,19.15,43.54,45.28v595.59c-27.88-17.42-60.95-17.42-87.08,0V92.3c0-26.12,19.15-47.02,43.54-47.02ZM130.63,849.84c-48.78,0-85.34-38.32-87.08-90.56,1.74-24.38,20.9-43.53,43.54-43.53s41.8,22.63,43.54,47.01c0,12.19,10.45,20.91,22.62,20.91s20.9-10.45,20.9-20.91V175.88h43.54v478.91c0,12.18,10.45,22.63,22.64,22.63s22.64-10.45,22.64-22.63V175.88h719.22v588.62H372.69c-12.2,0-22.64,10.45-22.64,22.64s10.45,22.63,22.64,22.63h609.51v43.54H130.63v-3.48Z"/>
      <path class="cls-1" d="M391.84,393.57h43.54v174.15c0,12.19,10.45,22.63,22.63,22.63h304.76c12.19,0,22.64-10.44,22.64-22.63v-174.15h43.54c12.19,0,22.64-10.45,22.64-22.63,0-8.71-5.23-15.67-10.45-19.15l-219.44-141.07c-6.96-5.22-15.66-5.22-24.37,0l-215.95,141.07c-8.7,5.23-12.19,15.67-8.7,24.38,0,10.45,8.7,17.41,19.15,17.41ZM586.89,545.07v-66.18h43.53v66.18h-43.53ZM740.14,545.07h-66.18v-87.07c0-12.19-10.45-22.64-22.64-22.64h-87.07c-12.19,0-22.64,10.45-22.64,22.64v87.07h-66.17v-153.24h261.22v153.24h3.49ZM607.79,255.99l144.53,94.04h-289.08l144.55-94.04Z"/>
      <path class="cls-1" d="M306.5,640.86c1.74,5.22,1.74,3.48,47.03,50.5,8.7,8.7,22.63,8.7,31.35,0,8.7-8.71,8.7-22.64,0-31.35l-6.98-5.22h296.05c12.19,0,22.64-10.45,22.64-22.64s-10.45-22.63-22.64-22.63h-296.05l6.98-6.97c8.7-8.71,8.7-22.63,0-31.35-8.72-8.71-22.64-8.71-31.35,0q-43.54,43.54-45.29,45.28c-5.21,8.71-5.21,17.42-1.74,24.39Z"/>
      <path class="cls-1" d="M933.44,707.04c3.47-5.23,3.47-12.19,1.73-19.16-1.73-5.23-1.73-3.48-48.76-50.5-8.7-8.71-22.64-8.71-31.35,0-8.71,8.71-8.71,22.64,0,31.35l6.98,6.97h-296.05c-12.19,0-22.64,10.45-22.64,22.63s10.45,22.64,22.64,22.64h296.05l-6.98,6.96c-8.71,8.71-8.71,22.64,0,31.35,8.7,8.71,22.64,8.71,31.35,0,47.03-50.5,43.54-47.02,47.03-52.24Z"/>
    </g>
  </g>
</svg>