<svg width="429" height="86" viewBox="0 0 429 86" fill="none" xmlns="http://www.w3.org/2000/svg">
<path d="M64.9773 28.3333L65 67.4309L50.1033 67.4534L50.0489 53.9563L0 53.9383L0.0499061 38.8451L30.769 0.453369L49.155 0.462361C49.4862 0.462361 49.1913 1.24467 49.0098 1.47397L17.7917 39.5599L50.058 39.6094L50.0897 24.3633L64.9773 28.3333Z" fill="#5AAA96"/>
<path d="M144 48.2508V19.6604C144 9.0552 135.398 0.453369 124.783 0.453369H80V67.4489H92.543L124.783 67.4534C135.394 67.4534 144 58.856 144 48.2463V48.2508ZM127.736 37.5872V45.3401C127.736 49.6658 124.226 53.1739 119.898 53.1739H96.3674V15.0967H119.898C124.226 15.0967 127.736 18.6048 127.736 22.9304V37.5872Z" fill="#5AAA96"/>
<path d="M196.114 0H164.477C159.571 0 155.593 3.92342 155.593 8.76254V30.2591C155.593 35.0982 159.571 39.0216 164.477 39.0216H192.526V55.0583H167.572V46.0471H155V58.2375C155 63.0766 158.978 67 163.884 67H196.114C201.02 67 204.998 63.0766 204.998 58.2375V35.556C204.998 30.7169 201.02 26.7935 196.114 26.7935H168.064V15.301H192.494C192.494 15.301 192.51 20.4539 192.51 20.2979H205V8.76426C205 3.92514 201.022 0.00171384 196.116 0.00171384L196.114 0Z" fill="white"/>
<path d="M251.378 14.0018H224.622C219.861 14.0018 216 18.0369 216 23.0138V57.9879C216 62.9649 219.861 67 224.622 67H251.378C256.139 67 260 62.9649 260 57.9879V51.8083L248.819 43.3747V55.7023H227.253V25.5834H248.819V38.3878L260 31.8282V23.012C260 18.0351 256.139 14 251.378 14V14.0018Z" fill="white"/>
<path d="M307.378 14H280.622C275.861 14 272 18.0353 272 23.0123V57.9877C272 62.9647 275.861 67 280.622 67H307.378C312.139 67 316 62.9647 316 57.9877V23.0123C316 18.0353 312.139 14 307.378 14ZM304.819 43.3757V55.7037H283.253V25.5838H304.819V43.3757Z" fill="white"/>
<path d="M363.378 14H336.622C331.861 14 328 18.0174 328 22.9723V57.7924C328 58.0821 328.015 58.3683 328.04 58.651V77.6036L339.221 86V66.7665H363.378C368.139 66.7665 372 62.7492 372 57.7942V22.9741C372 18.0191 368.139 14.0018 363.378 14.0018V14ZM360.821 43.2453V55.5186H339.255V25.5324H360.821V43.2453Z" fill="white"/>
<path d="M429 44.8377V35.4462L428.991 29.5608V23.0123C428.991 18.0353 425.044 14 420.175 14H392.817C387.948 14 384 18.0353 384 23.0123V57.9877C384 62.9647 387.948 67 392.817 67H420.175C424.923 67 428.793 63.1623 428.983 58.3563V49.9295H417.559V55.7019H395.507V44.836H429V44.8377ZM395.505 25.5838H417.557V35.4462H395.505V25.5838Z" fill="white"/>
</svg>
