<svg width="469" height="103" viewBox="0 0 469 103" fill="none" xmlns="http://www.w3.org/2000/svg">
<path d="M80.8411 35.1924L80.8693 84.4251L62.3357 84.4534L62.268 67.4575L0 67.4348L0.0620903 48.4291L38.281 0.0852051L61.1559 0.0965281C61.568 0.0965281 61.201 1.08164 60.9752 1.37037L22.1354 49.3293L62.2793 49.3915L62.3188 30.1933L80.8411 35.1924Z" fill="#5AAA96"/>
<path d="M180 60.2444V24.2087C180 10.8418 169.195 0 155.861 0H99.605V84.4418H115.361L155.861 84.4475C169.189 84.4475 180 73.6113 180 60.2388V60.2444ZM159.57 46.8039V56.5757C159.57 62.0278 155.161 66.4495 149.724 66.4495H120.165V18.4566H149.724C155.161 18.4566 159.57 22.8783 159.57 28.3303V46.8039Z" fill="#5AAA96"/>
<path d="M236.114 17H204.477C199.571 17 195.593 20.9234 195.593 25.7625V47.2591C195.593 52.0982 199.571 56.0216 204.477 56.0216H232.526V72.0583H207.572V63.0471H195V75.2375C195 80.0766 198.978 84 203.884 84H236.114C241.02 84 244.998 80.0766 244.998 75.2375V52.556C244.998 47.7169 241.02 43.7935 236.114 43.7935H208.064V32.301H232.494C232.494 32.301 232.51 37.4539 232.51 37.2979H245V25.7643C245 20.9251 241.022 17.0017 236.116 17.0017L236.114 17Z" fill="white"/>
<path d="M291.378 31.0018H264.622C259.861 31.0018 256 35.0369 256 40.0138V74.9879C256 79.9649 259.861 84 264.622 84H291.378C296.139 84 300 79.9649 300 74.9879V68.8083L288.819 60.3747V72.7023H267.253V42.5834H288.819V55.3878L300 48.8282V40.012C300 35.0351 296.139 31 291.378 31V31.0018Z" fill="white"/>
<path d="M347.378 31H320.622C315.861 31 312 35.0353 312 40.0123V74.9877C312 79.9647 315.861 84 320.622 84H347.378C352.139 84 356 79.9647 356 74.9877V40.0123C356 35.0353 352.139 31 347.378 31ZM344.819 60.3757V72.7037H323.253V42.5838H344.819V60.3757Z" fill="white"/>
<path d="M403.378 31H376.622C371.861 31 368 35.0174 368 39.9723V74.7924C368 75.0821 368.015 75.3683 368.04 75.651V94.6036L379.221 103V83.7665H403.378C408.139 83.7665 412 79.7492 412 74.7942V39.9741C412 35.0191 408.139 31.0018 403.378 31.0018V31ZM400.821 60.2453V72.5186H379.255V42.5324H400.821V60.2453Z" fill="white"/>
<path d="M469 61.8377V52.4462L468.991 46.5608V40.0123C468.991 35.0353 465.044 31 460.175 31H432.817C427.948 31 424 35.0353 424 40.0123V74.9877C424 79.9647 427.948 84 432.817 84H460.175C464.923 84 468.793 80.1623 468.983 75.3563V66.9295H457.559V72.7019H435.507V61.836H469V61.8377ZM435.505 42.5838H457.557V52.4462H435.505V42.5838Z" fill="white"/>
</svg>
