<?xml version="1.0" encoding="UTF-8"?>
<svg id="Calque_1" data-name="Calque 1" xmlns="http://www.w3.org/2000/svg" viewBox="0 0 658.73 381.33">
  <defs>
    <style>
      .cls-1 {
        fill: #fff;
      }
    </style>
  </defs>
  <g>
    <polygon class="cls-1" points="539.99 380.04 518.91 380.07 525.69 374.93 525.7 348.33 487.18 348.34 487.19 374.85 493.95 379.97 472.93 380.04 479.54 374.93 479.54 319.73 472.89 314.67 493.99 314.68 487.17 319.82 487.25 345.28 525.69 345.22 525.72 319.95 519 314.65 539.99 314.68 533.36 319.63 533.31 374.75 539.99 380.04"/>
    <path class="cls-1" d="M167.57,373.98l-16.3-27.01-9.1-.09v28.13s7.75,5.02,7.75,5.02l-22.18.03,6.76-5.12.04-54.99-6.67-5.38,25.22-.1c6.68-.03,14.97,2.93,17.13,9.99,2.82,9.22-3.48,16.51-11.43,20.85l12.51,20.93c2.56,4.29,8.42,11.39,13.48,13.69-5.99,2.08-13.45.25-17.2-5.96ZM160.68,338.97c3.17-4.95,3.35-11.35.31-16.24-3.74-6.02-12.55-5.89-18.83-5.47l.02,27.01,9.7.03c3.55.01,6.73-2.07,8.81-5.32Z"/>
    <path class="cls-1" d="M357.16,379.78c-11.11.83-21.37.23-33.03.27,2.11-1.91,4.07-3.29,6.59-5.1v-55.18s-6.76-5.16-6.76-5.16l29.33.04c7,0,13.6,2.48,19.3,5.94,9.51,5.77,14,15.16,14.21,26.12.33,17.18-11.66,31.74-29.65,33.08ZM377.16,338.5c-2.7-12.31-13.27-21.02-25.84-21.3-4.46-.1-8.6-.05-12.96.09v57.79c7.05,2.47,14.47,3.19,21.66,1.24,16.01-4.34,20.31-23.38,17.14-37.82Z"/>
    <path class="cls-1" d="M99.9,378.22c-10.44,5.04-22.52,3.78-31.85-2.58-8.73-5.95-13.93-15.85-14.01-27.14-.09-13.13,6.12-25.43,18.01-31.65,8.95-4.67,19.96-4.59,28.96-.13,11.2,5.55,17.54,16.38,17.94,28.71.45,13.73-6.21,26.58-19.06,32.78ZM99.24,374.01c11.24-8.78,12.85-24.83,9.93-37.35-1.19-5.13-3.58-9.66-7.11-13.49-8.48-9.2-22.73-9.24-31.15.03-3.36,3.7-5.67,8.05-6.87,12.98-3.09,12.71-1.45,29.48,9.81,38.04,7.39,5.62,17.84,5.68,25.38-.2Z"/>
    <path class="cls-1" d="M432.17,346.67l-22.59-.05v30.67s23.8-.03,23.8-.03l7.18-10.24.11,13.17-45.36-.11,6.62-5.11.03-55.02-6.79-5.44,43.12-.05-.18,11.2-6.64-8.28-21.89-.04v26.28s22.27-.01,22.27-.01l4.61-6.72.05,16.23c-1.76-2.24-2.6-3.57-4.33-6.45Z"/>
    <polygon class="cls-1" points="283.25 346.65 260.82 346.62 260.83 377.3 284.68 377.25 291.86 367.02 291.98 380.18 246.58 380.08 253.16 374.93 253.18 319.9 246.55 314.55 289.48 314.44 289.33 325.72 282.55 317.32 260.81 317.38 260.81 343.6 283.13 343.6 287.69 336.99 287.69 353.11 283.25 346.65"/>
    <path class="cls-1" d="M37.17,330.19c-1.81-11.42-12.3-13.86-22.81-12.93v57.77s6.29,3.81,6.29,3.81c.31.19.78,1.18.62,1.33l-21.21-.15,6.64-5.14v-55.1s-6.71-5.15-6.71-5.15l25.59-.05c3.64,0,7.57,1.35,10.68,2.88,5.93,2.92,9.07,8.47,9.18,14.98s-2.74,12.72-8.31,16.5c-5.25,3.57-11.58,5.8-18.16,4.67,12.35-2.79,20.22-10.62,18.19-23.41Z"/>
    <path class="cls-1" d="M583.48,351.13h-20.18s-9.17,23.88-9.17,23.88l6.93,4.94-16.01.1,5.72-5.24,24.14-62.34,26.26,62.29,5.86,5.26h-20.51s6.92-5.1,6.92-5.1l-9.96-23.8ZM582.28,348.31l-9.28-22.03-8.59,22.05,17.88-.02Z"/>
    <polygon class="cls-1" points="220.78 380.05 200.02 379.96 206.51 374.85 206.53 317.57 189.64 317.47 182.63 326.58 182.44 314.47 238.37 314.46 238.21 326.71 231.25 317.52 214.19 317.52 214.15 374.57 220.78 380.05"/>
    <path class="cls-1" d="M658.41,365.22l.33,14.95-46.4-.05c2.19-2.02,4.09-3.37,6.52-5.17v-55.22s-6.66-5.06-6.66-5.06l21.24-.02-6.94,5.14v57.47s23.76.01,23.76.01l8.15-12.05Z"/>
  </g>
  <g>
    <rect class="cls-1" x="275.62" y="136.08" width="4.86" height="15.15"/>
    <rect class="cls-1" x="275.62" y="186.11" width="4.86" height="15.15"/>
    <rect class="cls-1" x="275.62" y="242.14" width="4.86" height="15.15"/>
    <g>
      <path class="cls-1" d="M325.94,135.51h-3.14v-21.73c2,1.72,3.14,4.29,3.14,6.86v14.87ZM319.07,120.36c0-2.57,1.14-5.15,3.14-6.58v21.73h-3.14v-15.15ZM326.79,120.36c0-3.14-1.43-6.29-4-8h-.57c-2.57,1.72-4.29,4.57-4,8v15.72h8.58v-15.72Z"/>
      <path class="cls-1" d="M399.69,110.35v7.15c-.86-.29-1.72-.86-2.57-1.14-11.44-3.43-23.16-5.72-35.16-6.58v-14.01l5.15.57v1.43h0l-.57,6,6,1.14,1.43-6.58h0v-1.14c1.72.29,3.43.57,5.15.86v1.43l-2,5.72,5.43,1.43,3.14-6h0v-1.14c1.72.29,3.43.86,5.15,1.14v1.14l-2.86,5.15,6.29,2,3.43-5.15h0v-.86c1.43.57,4,1.72,5.15,2.29v1.14c-2,.57-3.14,2.29-3.14,4M361.67,284.74h37.74v2.57h-37.45l-.29-2.57ZM259.33,284.74h37.74v2.57h-37.74v-2.57ZM256.18,106.35v-1.14c1.14-.57,3.72-1.72,5.15-2.29v.86h0l3.43,5.15,6.29-2-2.86-5.15v-1.14c1.43-.29,3.43-.86,5.15-1.14v1.14h0l3.14,6,5.43-1.43-1.72-5.72v-1.14c1.72-.29,3.43-.57,5.15-.86v1.14h0l1.43,6.58,6-1.14-.57-6h0v-1.43l5.15-.57v14.01c-12.01.86-23.73,2.86-35.16,6.58-.86.29-1.72.57-2.57,1.14v-7.15c-.29-2-1.72-3.72-3.43-4.29M256.18,102.92l5.15-2.29v1.14c-1.14.57-3.72,1.43-5.15,2.29,0,0,0-1.14,0-1.14ZM268.19,98.34l5.15-1.14v1.43c-1.72.29-3.43.86-5.15,1.14,0,0,0-1.43,0-1.43ZM263.61,106.06l-1.14-1.72,4.86-1.72.86,1.72-4.57,1.72ZM269.62,106.63l-4.57,1.43-.86-1.43,4.86-1.43.57,1.43ZM280.19,96.06l5.15-.86v1.43l-5.15.86v-1.43ZM275.62,103.2l-1.14-2,4.86-1.14.57,2-4.29,1.14ZM280.77,104.63l-3.72,1.14-.86-1.72,4.29-.86.29,1.43ZM256.18,85.76c0-1.43,2-3.14,5.15-4.29v4.29l.86-.29c1.43-.57,3.43-1.14,5.43-1.72h.29v-4.29h.57c1.43-.29,2.86-.86,4.57-1.14v4h.57c1.72-.29,4-.86,5.72-1.14h.29v-4.29c1.72-.29,3.43-.57,5.15-.86v4l1.72-.29,4.86-.29h.29v-4.29l5.43-.57v11.15-.29c-.57-.29-1.43-.29-2.29-.29-2,.29-3.43,2-3.43,3.72v8.58l-5.15.86v-8.86c0-1.72-1.14-2.86-2.57-3.14h-.86c-2,.29-3.43,2-3.43,3.72v8.58l-5.15,1.72v-8.58c0-.86-.29-1.72-.86-2.29-.57-.57-1.72-.86-2.57-.57-2,.29-3.43,2-3.43,3.72v9.15l-5.15,1.72v-7.72c0-.86-.29-1.72-.86-2.29s-1.72-.86-2.57-.57c-.86.29-2,.57-2.57,1.43v-8.58ZM299.35,43.45l-25.44,36.31v-2.57h-.57l-1.14.29,27.16-34.02ZM281.62,75.76l-2.29.29h-.29v4.29l-4.86.86,27.44-39.45-20.01,34.02ZM384.83,81.19l-4.86-.86v-4.29h-.29l-2.29-.29-20.01-33.73,27.44,39.17ZM386.83,77.47l-1.14-.29h-.57v2.57l-25.44-36.31,27.16,34.02ZM372.25,101.49l-4.57-.86.29-2,4.86.86-.57,2ZM367.67,101.49l4.57.86-.29,1.72-4.29-.86v-1.72ZM361.96,93.77l5.15.86v.86l-5.15-.57v-1.14ZM399.69,120.93c-.86-.29-1.72-.57-2.57-1.14-11.44-3.43-23.16-5.72-35.16-6.58v-2.29c11.72.86,23.44,2.86,34.88,6.58.86.29,2,.86,2.86,1.14v2.29ZM361.96,114.35c11.72.86,23.44,2.86,34.88,6.58.86.29,2,.86,2.86,1.14v161.81h-37.74V114.35ZM353.95,79.47l6.86,1.43v206.41h-6.86V79.47ZM297.92,80.9l6.86-1.43v207.84h-6.86V80.9ZM259.33,122.07c.86-.57,2-.86,2.86-1.14,11.44-3.43,23.16-5.72,34.88-6.58v169.53h-37.74V122.07ZM291.92,94.63l5.15-.86v1.14l-5.15.57v-.86ZM285.63,78.33l11.44-22.58v5.15l-5.15,13.44h-1.14v4l-4.29.57h-.86v-.57ZM297.06,53.75l-11.44,22.58v-1.14h-.57l-2.57.29,23.73-40.02-9.15,18.3h0ZM305.07,52.6l-6.86.57,13.15-26.02-6.29,25.44ZM309.35,52.6h-3.43l7.15-28.59h2.29l-6,28.59ZM313.93,52.6h-3.43l6-28.59h2.29l-4.86,28.59ZM318.22,52.6h-3.43l4.57-28.59h2.29l-3.43,28.59ZM323.65,35.74l-1.14,1.72v7.15h-2.29v7.72h-1.14l3.43-28.59h2.29l-1.14,12.01ZM327.37,29.45l-2.86,4.57.57-10.01h2l.29,5.43ZM334.23,34.02l-2.86-4.57v-5.72h2l.86,10.29ZM339.94,52.6h-1.14v-7.72h-2.29v-7.15l-1.14-1.72-.86-11.72h2.29l3.14,28.3ZM344.23,52.6h-3.43l-3.14-28.59h2.29l4.29,28.59ZM348.81,52.6h-3.43l-4.57-28.59h2l6,28.59ZM353.09,52.6h-3.43l-6-28.59h2.29l7.15,28.59ZM360.81,53.46l-6.86-.57-6.29-25.44,13.15,26.02ZM361.67,53.46l-9.15-18.01,23.44,40.02-2.57-.29h-.57v1.14l-11.44-22.58.29-.29ZM361.67,63.47l4,10.86-4-.57v-10.29ZM353.95,53.75l7.15.57v20.3h0v5.43l-6.86-1.14-.29-25.16ZM346.23,278.16V104.35c.29-3.72-1.14-7.43-3.43-10.58-1.72-2-4.29-2.86-6.86-2.86h-13.15c-2.57,0-5.15.86-6.86,2.86-2.29,2.86-3.43,6.58-3.43,10.58v173.82l-6.86,8.58V79.47h47.17v206.98l-6.58-8.29ZM313.36,106.63h32.3v170.96h-4v-36.02c0-4.29-.57-8.29-2.29-12.01h0l-.57-.86c0-.29-.29-.57-.29-.57v-.29c-2.29-3.72-5.15-7.15-8.58-9.72h0l-.29-.29-.29.29h0c-3.43,2.57-6.29,6-8.58,9.72v.29l-.29.57c0,.29-.29.57-.57.86h0c-1.72,3.72-2.29,8-2.29,12.01v36.02h-4l-.29-170.96ZM313.36,104.35v-1.43h32.3v3.14h-32.3v-1.72ZM318.22,261.3c0-6,4.86-10.86,10.86-11.15v27.73h-10.86v-16.58ZM318.22,242.14h22.58v14.87c-2.29-6.29-9.43-9.43-15.44-6.86-3.14,1.14-5.72,3.72-6.86,6.86l-.29-14.87h0ZM318.5,237.57h22.01c0,1.14.29,2.57.29,3.72h-22.58c0-1.14,0-2.29.29-3.72M329.94,277.59v-27.73c6,.29,10.86,5.15,10.86,11.15v16.58h-10.86ZM319.36,232.99h20.3c.29,1.14.57,2.57.86,3.72h-22.01c0-1.14.29-2.57.86-3.72M338.51,229.56c.29.86.57,1.72.86,2.57h-20.01c.29-.86.57-1.72.86-2.57h18.3ZM313.93,98.91h30.88c.29.86.29,2,.57,2.86h-31.73c0-.86.29-2,.29-2.86M321.08,53.46v-7.72h2.29v-7.72l6-10.01,6,10.01v7.72h2.29v7.72h15.15v25.16h-46.88v-25.16h15.15ZM298.21,74.61v-20.3l7.15-.57v25.16l-6.86,1.43-.29-5.72ZM367.96,74.33h-.86l-5.15-13.44v-5.15l11.44,22.58v.86h-.86l-4-.57v-4.29h-.57ZM329.65,23.73h1.14v4.29l-1.14-1.72-1.14,1.72v-4l1.14-.29ZM297.06,73.76l-4,.29,4-10.86v10.58ZM286.2,99.2l4.86-.86.29,2-4.57.86-.57-2ZM291.63,103.2l-4.29.86-.57-1.72,4.57-.86.29,1.72ZM259.33,118.64c.86-.57,2-.86,2.86-1.14,11.44-3.43,23.16-5.72,34.88-6.58v2.29c-12.01.86-23.73,3.14-35.16,6.58-.86.29-2,.57-2.57,1.14,0,0,0-2.29,0-2.29ZM383.4,103.2l-4.29-1.14.57-2,4.86,1.14-1.14,2ZM378.82,102.92l4.29.86-.86,1.72-3.72-1.14.29-1.43ZM373.68,95.2l5.15.86v1.43l-5.15-.86v-1.43ZM385.68,97.2l5.15,1.14v1.43c-1.72-.29-3.43-.86-5.15-1.14v-1.43ZM395.4,105.78l-4.86-1.43.86-2,4.86,1.72-.86,1.72ZM389.97,105.2l4.57,1.43-.57,1.43-4.57-1.43.57-1.43ZM390.83,79.47v4.29h.57c2,.57,4,1.14,5.43,1.72l.86.29v-4.29c3.14,1.14,5.15,2.86,5.15,4.29v8.58c-.57-.86-1.43-1.43-2.57-1.43-.86-.29-1.72,0-2.57.57-.57.57-1.14,1.43-.86,2.29v7.72l-5.15-1.72v-9.15c0-2-1.43-3.43-3.43-3.72-.86,0-1.72,0-2.57.57-.57.57-1.14,1.43-.86,2.29v8.58l-5.15-1.14v-8.58c0-2-1.43-3.43-3.43-3.72-.86-.29-1.72,0-2.57.57-.57.57-1.14,1.43-.86,2.29v8.86l-5.15-.86v-8.58c0-2-1.43-3.72-3.43-4-.86,0-1.72,0-2.57.57v.29-11.15l5.43.57v4h.29l4.57.57,1.72.29v-4.29c1.72.29,3.43.57,5.15.86v4h.29l5.72,1.14h.86v-4c1.72.29,3.14.57,5.15,1.43h0ZM397.69,100.63l5.15,2.29v1.14c-1.43-.57-3.72-1.72-5.15-2.29v-1.14ZM403.7,96.63v-10.86c0-2-2.29-4-6.29-5.15l-.57-.29v4.29c-1.43-.57-3.14-1.14-5.15-1.43v-4.29l-.86-.29-2.86-.57-36.31-45.74-5.15-8.58V0h-.86v23.44h-4.57v-8.29h-.86v8.29h-4.86v-8.29h-.86v8.29h-4.57v-8.29h-.86v8.29h-4.57v-8.29h-.86v8.29h-4.86v-8.29h-.86v8.29h-4.57V0h-.86v23.73l-5.15,8.58-36.31,45.74-2.86.57-1.14.29v4.29c-1.72.57-3.43.86-5.15,1.43v-4.29l-.57.29c-3.72,1.43-6.29,3.43-6.29,5.15v10.86h0v10.29h.29c2.86,1.43,2.86,3.43,2.86,3.72v177.53h142.37V110.35s0-2.29,2.86-3.72h.29v-10.01h0Z"/>
    </g>
    <rect class="cls-1" x="378.25" y="136.08" width="4.86" height="15.15"/>
    <rect class="cls-1" x="378.25" y="186.11" width="4.86" height="15.15"/>
    <rect class="cls-1" x="378.25" y="242.14" width="4.86" height="15.15"/>
    <rect class="cls-1" x="328.22" y="39.17" width="2.29" height="13.15"/>
    <path class="cls-1" d="M325.94,70.61h7.15v2.29h-7.15v-2.29ZM333.08,69.75h-7.15v-2.86h7.15v2.86ZM333.94,58.89h-8.86v14.87h8.86v-14.87Z"/>
    <g>
      <path class="cls-1" d="M339.94,135.51h-2.86v-21.73c2,1.72,2.86,4.29,2.86,6.58v15.15ZM333.08,120.36c0-2.57,1.14-5.15,3.14-6.58v21.73h-3.14v-15.15ZM340.8,120.36c0-3.14-1.43-6.29-4-8h-.57c-2.57,1.72-4.29,4.57-4,8v15.72h8.58v-15.72Z"/>
      <path class="cls-1" d="M339.37,200.4v-12.01c-.29-2.86-1.14-6-2.57-8.58h0c-1.43,2.57-2,5.72-2.57,8.58v12.01h-2.57v-12.01c-.29-2.86-1.14-6-2.29-8.58-1.43,2.57-2,5.72-2.57,8.58v12.01h-2.57v-12.01c-.29-2.86-1.14-6-2.57-8.58h0c-1.43,2.57-2,5.72-2.57,8.58v12.01h-2.86v-27.16h25.44v27.16h-2.29ZM316.79,159.52h25.44v3.72h-25.44v-3.72ZM342.23,172.67h-25.44v-4h25.44v4ZM316.79,164.1h25.44v3.72h-25.44v-3.72ZM342.23,156.09v2.57h-25.44v-2.86l25.44.29h0M342.8,156.09c0-7.43-6.86-11.72-13.44-11.72s-13.44,4-13.44,11.72v44.88h26.87s0-44.88,0-44.88Z"/>
    </g>
  </g>
</svg>